<svg width="18" height="18" viewBox="0 0 18 18" fill="none" xmlns="http://www.w3.org/2000/svg">
<g clip-path="url(#clip0_52_21)">
<path d="M14.6506 6.861C13.6224 6.861 13.0509 7.62319 12.931 8.4495H16.3887C16.2948 7.66144 15.7379 6.86381 14.6512 6.86381L14.6506 6.861ZM12.9569 9.57788C13.133 10.4447 13.8507 11.0539 14.8559 11.0539C15.3976 11.0539 16.1829 10.8519 16.6424 10.3682L17.5244 11.3824C16.7279 12.2143 15.5354 12.4517 14.7209 12.4517C12.7404 12.4517 11.1969 11.0213 11.1969 8.994C11.1969 7.09556 12.6172 5.53125 14.6242 5.53125C16.5637 5.53125 17.9992 7.01625 17.9992 8.98275V9.5565H12.9569V9.57788ZM8.09073 12.4489V8.18006C8.09073 7.45106 7.76505 7.02862 7.08555 7.02862C6.47636 7.02862 6.07248 7.46794 5.79911 7.78462V12.4629H4.03567V8.1885C4.03567 7.45556 3.72517 7.04044 3.04792 7.04044C2.43873 7.04044 2.01686 7.47975 1.75923 7.79644V12.4748H-0.00195312V5.63081H1.76205V6.492C2.06073 6.14606 2.73686 5.54869 3.79211 5.54869C4.7298 5.54869 5.36486 5.94188 5.64892 6.74119C6.04436 6.17025 6.77392 5.54869 7.83142 5.54869C9.10886 5.54869 9.85023 6.30469 9.85023 7.76944V12.4517H8.08623L8.08905 12.4455L8.09073 12.4489Z" fill="#593F00"/>
</g>
<defs>
<clipPath id="clip0_52_21">
<rect width="18" height="18" fill="white"/>
</clipPath>
</defs>
</svg>
