<svg width="22" height="22" viewBox="0 0 22 22" fill="none" xmlns="http://www.w3.org/2000/svg">
<path d="M3.66602 19.2507C3.66602 19.4938 3.76259 19.7269 3.9345 19.8988C4.10641 20.0707 4.33957 20.1673 4.58268 20.1673H17.416C17.6591 20.1673 17.8923 20.0707 18.0642 19.8988C18.2361 19.7269 18.3327 19.4938 18.3327 19.2507V2.75065C18.3327 2.50754 18.2361 2.27438 18.0642 2.10247C17.8923 1.93056 17.6591 1.83398 17.416 1.83398H4.58268C4.33957 1.83398 4.10641 1.93056 3.9345 2.10247C3.76259 2.27438 3.66602 2.50754 3.66602 2.75065V19.2507ZM10.9993 6.87565C11.3619 6.87565 11.7164 6.98317 12.0179 7.18462C12.3194 7.38607 12.5544 7.6724 12.6931 8.0074C12.8319 8.3424 12.8682 8.71102 12.7975 9.06665C12.7267 9.42228 12.5521 9.74895 12.2957 10.0053C12.0393 10.2617 11.7126 10.4364 11.357 10.5071C11.0014 10.5778 10.6328 10.5415 10.2978 10.4028C9.96276 10.264 9.67644 10.029 9.47499 9.72753C9.27354 9.42604 9.16602 9.07158 9.16602 8.70898C9.16602 8.22275 9.35917 7.75644 9.70299 7.41262C10.0468 7.06881 10.5131 6.87565 10.9993 6.87565ZM7.5261 14.8644C7.77184 14.1381 8.23908 13.5071 8.86211 13.0602C9.48514 12.6133 10.2326 12.3729 10.9993 12.3729C11.7661 12.3729 12.5136 12.6133 13.1366 13.0602C13.7596 13.5071 14.2269 14.1381 14.4726 14.8644C14.5147 15.0013 14.5239 15.1462 14.4995 15.2873C14.4751 15.4284 14.4178 15.5618 14.3321 15.6765C14.2464 15.7913 14.1349 15.8843 14.0066 15.9478C13.8782 16.0114 13.7367 16.0437 13.5935 16.0423H8.41435C8.27083 16.0438 8.12896 16.0116 8.00017 15.9483C7.87137 15.8849 7.75925 15.7922 7.67284 15.6776C7.58642 15.563 7.52812 15.4297 7.50264 15.2885C7.47715 15.1472 7.48519 15.002 7.5261 14.8644Z" fill="#593F00"/>
</svg>
