<svg width="22" height="22" viewBox="0 0 22 22" fill="none" xmlns="http://www.w3.org/2000/svg">
<path d="M13.75 14.3371C13.75 13.5561 14.1914 12.8418 14.8899 12.4926L16.5 11.6875L11.6875 2.0625H10.3125L5.5 11.6875L7.11013 12.4926C7.80862 12.8418 8.25 13.5561 8.25 14.3371V14.4375H6.875V19.9375H15.125V14.4375H13.75V14.3371ZM7.72475 11.2626L7.34456 11.0729L10.3125 5.137V10.3125H11.6875V5.137L14.6554 11.0722L14.2752 11.2619C13.1031 11.8484 12.375 13.0267 12.375 14.3371V14.4375H9.625V14.3371C9.625 13.0267 8.89694 11.8484 7.72475 11.2626ZM13.75 18.5625H8.25V15.8125H13.75V18.5625Z" fill="#593F00"/>
</svg>
